<svg xmlns="http://www.w3.org/2000/svg" xmlns:xlink="http://www.w3.org/1999/xlink" width="1696.827" height="287.34" viewBox="0 0 1696.827 287.34">
  <defs>
    <clipPath id="clip-path">
      <rect id="Rectangle_16" data-name="Rectangle 16" width="1696.827" height="116.185" fill="none" stroke="#3bb2bf" stroke-width="10"/>
    </clipPath>
    <clipPath id="clip-path-2">
      <rect id="Rectangle_16-2" data-name="Rectangle 16" width="1696.827" height="116.185" fill="none" stroke="#4bbfbf" stroke-width="10"/>
    </clipPath>
    <clipPath id="clip-path-3">
      <rect id="Rectangle_16-3" data-name="Rectangle 16" width="1696.827" height="116.185" fill="none" stroke="#178ca6" stroke-width="10"/>
    </clipPath>
  </defs>
  <g id="Group_30" data-name="Group 30" transform="translate(146.601 -775.241)">
    <g id="Group_11" data-name="Group 11" transform="translate(-146.601 854.848)">
      <g id="Group_9" data-name="Group 9" clip-path="url(#clip-path)">
        <path id="Path_37" data-name="Path 37" d="M1684.917,104.276C1608.384,104.276,1608.384,1,1531.843,1s-76.534,103.276-153.074,103.276C1302.249,104.276,1302.249,1,1225.721,1s-76.534,103.276-153.061,103.276S996.12,1,919.586,1,843.046,104.276,766.5,104.276,689.959,1,613.412,1s-76.54,103.276-153.087,103.276S383.779,1,307.232,1s-76.56,103.276-153.119,103.276S77.56,1,1,1" transform="translate(5.455 5.455)" fill="none" stroke="#3bb2bf" stroke-linecap="round" stroke-width="10"/>
      </g>
    </g>
    <g id="Group_10" data-name="Group 10" transform="translate(-146.601 775.241)">
      <g id="Group_9-2" data-name="Group 9" clip-path="url(#clip-path-2)">
        <path id="Path_37-2" data-name="Path 37" d="M1684.917,104.276C1608.384,104.276,1608.384,1,1531.843,1s-76.534,103.276-153.074,103.276C1302.249,104.276,1302.249,1,1225.721,1s-76.534,103.276-153.061,103.276S996.12,1,919.586,1,843.046,104.276,766.5,104.276,689.959,1,613.412,1s-76.54,103.276-153.087,103.276S383.779,1,307.232,1s-76.56,103.276-153.119,103.276S77.56,1,1,1" transform="translate(5.455 5.455)" fill="none" stroke="#4bbfbf" stroke-linecap="round" stroke-width="10"/>
      </g>
    </g>
    <g id="Group_12" data-name="Group 12" transform="translate(-146.601 946.397)">
      <g id="Group_9-3" data-name="Group 9" clip-path="url(#clip-path-3)">
        <path id="Path_37-3" data-name="Path 37" d="M1684.917,104.276C1608.384,104.276,1608.384,1,1531.843,1s-76.534,103.276-153.074,103.276C1302.249,104.276,1302.249,1,1225.721,1s-76.534,103.276-153.061,103.276S996.12,1,919.586,1,843.046,104.276,766.5,104.276,689.959,1,613.412,1s-76.54,103.276-153.087,103.276S383.779,1,307.232,1s-76.56,103.276-153.119,103.276S77.56,1,1,1" transform="translate(5.455 5.455)" fill="none" stroke="#178ca6" stroke-linecap="round" stroke-width="10"/>
      </g>
    </g>
  </g>
</svg>
